<?xml version="1.0" encoding="utf-8"?>
<!-- Generator: Adobe Illustrator 22.0.0, SVG Export Plug-In . SVG Version: 6.00 Build 0)  -->
<svg version="1.1" xmlns="http://www.w3.org/2000/svg" xmlns:xlink="http://www.w3.org/1999/xlink" x="0px" y="0px"
	 viewBox="0 0 1200 1200" style="enable-background:new 0 0 1200 1200;" xml:space="preserve">
<style type="text/css">
	.st0{display:none;}
	.st1{display:inline;fill:#F4EDEA;}
	.st2{fill:#DC143C;}
	.st3{display:inline;}
	.st4{opacity:0;fill:#FFFFFF;}
	.st5{opacity:6.250000e-02;fill:#FBFBFB;}
	.st6{opacity:0.125;fill:#F7F7F7;}
	.st7{opacity:0.1875;fill:#F3F3F3;}
	.st8{opacity:0.25;fill:#EFEFEF;}
	.st9{opacity:0.3125;fill:#EBEBEB;}
	.st10{opacity:0.375;fill:#E7E7E7;}
	.st11{opacity:0.4375;fill:#E3E3E3;}
	.st12{opacity:0.5;fill:#DFDFDF;}
	.st13{opacity:0.5625;fill:#DBDBDB;}
	.st14{opacity:0.625;fill:#D7D7D7;}
	.st15{opacity:0.6875;fill:#D3D3D3;}
	.st16{opacity:0.75;fill:#CFCFCF;}
	.st17{opacity:0.8125;fill:#CBCBCB;}
	.st18{opacity:0.875;fill:#C7C7C7;}
	.st19{opacity:0.9375;fill:#C3C3C3;}
	.st20{fill:#BFBFBF;}
	.st21{fill:#FFFFFF;}
	.st22{fill:#312E2A;}
</style>
<g id="Ñëîé_2" class="st0">
</g>
<g id="Ñëîé_6" class="st0">
	<rect class="st1" width="1200" height="1200"/>
</g>
<g id="Ñëîé_7">
	<g>
		<circle class="st2" cx="11.8" cy="11.8" r="11.8"/>
		<circle class="st2" cx="129.4" cy="11.8" r="11.8"/>
		<circle class="st2" cx="247.1" cy="11.8" r="11.8"/>
		<circle class="st2" cx="364.7" cy="11.8" r="11.8"/>
		<circle class="st2" cx="482.4" cy="11.8" r="11.8"/>
		<circle class="st2" cx="600" cy="11.8" r="11.8"/>
		<circle class="st2" cx="717.6" cy="11.8" r="11.8"/>
		<circle class="st2" cx="835.3" cy="11.8" r="11.8"/>
		<circle class="st2" cx="952.9" cy="11.8" r="11.8"/>
		<circle class="st2" cx="1070.6" cy="11.8" r="11.8"/>
		<circle class="st2" cx="1188.2" cy="11.8" r="11.8"/>
		<circle class="st2" cx="11.8" cy="129.4" r="11.8"/>
		<circle class="st2" cx="129.4" cy="129.4" r="11.8"/>
		<circle class="st2" cx="247.1" cy="129.4" r="11.8"/>
		<circle class="st2" cx="364.7" cy="129.4" r="11.8"/>
		<circle class="st2" cx="482.4" cy="129.4" r="11.8"/>
		<circle class="st2" cx="600" cy="129.4" r="11.8"/>
		<circle class="st2" cx="717.6" cy="129.4" r="11.8"/>
		<circle class="st2" cx="835.3" cy="129.4" r="11.8"/>
		<circle class="st2" cx="952.9" cy="129.4" r="11.8"/>
		<circle class="st2" cx="1070.6" cy="129.4" r="11.8"/>
		<circle class="st2" cx="1188.2" cy="129.4" r="11.8"/>
		<circle class="st2" cx="11.8" cy="247.1" r="11.8"/>
		<circle class="st2" cx="129.4" cy="247.1" r="11.8"/>
		<circle class="st2" cx="247.1" cy="247.1" r="11.8"/>
		<circle class="st2" cx="364.7" cy="247.1" r="11.8"/>
		<circle class="st2" cx="482.4" cy="247.1" r="11.8"/>
		<circle class="st2" cx="600" cy="247.1" r="11.8"/>
		<circle class="st2" cx="717.6" cy="247.1" r="11.8"/>
		<circle class="st2" cx="835.3" cy="247.1" r="11.8"/>
		<circle class="st2" cx="952.9" cy="247.1" r="11.8"/>
		<circle class="st2" cx="1070.6" cy="247.1" r="11.8"/>
		<circle class="st2" cx="1188.2" cy="247.1" r="11.8"/>
		<circle class="st2" cx="11.8" cy="364.7" r="11.8"/>
		<circle class="st2" cx="129.4" cy="364.7" r="11.8"/>
		<circle class="st2" cx="247.1" cy="364.7" r="11.8"/>
		<circle class="st2" cx="364.7" cy="364.7" r="11.8"/>
		<circle class="st2" cx="482.4" cy="364.7" r="11.8"/>
		<circle class="st2" cx="600" cy="364.7" r="11.8"/>
		<circle class="st2" cx="717.6" cy="364.7" r="11.8"/>
		<circle class="st2" cx="835.3" cy="364.7" r="11.8"/>
		<circle class="st2" cx="952.9" cy="364.7" r="11.8"/>
		<circle class="st2" cx="1070.6" cy="364.7" r="11.8"/>
		<circle class="st2" cx="1188.2" cy="364.7" r="11.8"/>
		<circle class="st2" cx="11.8" cy="482.4" r="11.8"/>
		<circle class="st2" cx="129.4" cy="482.4" r="11.8"/>
		<circle class="st2" cx="247.1" cy="482.4" r="11.8"/>
		<circle class="st2" cx="364.7" cy="482.4" r="11.8"/>
		<circle class="st2" cx="482.4" cy="482.4" r="11.8"/>
		<circle class="st2" cx="600" cy="482.4" r="11.8"/>
		<circle class="st2" cx="717.6" cy="482.4" r="11.8"/>
		<circle class="st2" cx="835.3" cy="482.4" r="11.8"/>
		<circle class="st2" cx="952.9" cy="482.4" r="11.8"/>
		<circle class="st2" cx="1070.6" cy="482.4" r="11.8"/>
		<circle class="st2" cx="1188.2" cy="482.4" r="11.8"/>
		<circle class="st2" cx="11.8" cy="600" r="11.8"/>
		<circle class="st2" cx="129.4" cy="600" r="11.8"/>
		<circle class="st2" cx="247.1" cy="600" r="11.8"/>
		<circle class="st2" cx="364.7" cy="600" r="11.8"/>
		<circle class="st2" cx="482.4" cy="600" r="11.8"/>
		<circle class="st2" cx="600" cy="600" r="11.8"/>
		<circle class="st2" cx="717.6" cy="600" r="11.8"/>
		<circle class="st2" cx="835.3" cy="600" r="11.8"/>
		<circle class="st2" cx="952.9" cy="600" r="11.8"/>
		<circle class="st2" cx="1070.6" cy="600" r="11.8"/>
		<circle class="st2" cx="1188.2" cy="600" r="11.8"/>
		<circle class="st2" cx="11.8" cy="717.6" r="11.8"/>
		<circle class="st2" cx="129.4" cy="717.6" r="11.8"/>
		<circle class="st2" cx="247.1" cy="717.6" r="11.8"/>
		<circle class="st2" cx="364.7" cy="717.6" r="11.8"/>
		<circle class="st2" cx="482.4" cy="717.6" r="11.8"/>
		<circle class="st2" cx="600" cy="717.6" r="11.8"/>
		<circle class="st2" cx="717.6" cy="717.6" r="11.8"/>
		<circle class="st2" cx="835.3" cy="717.6" r="11.8"/>
		<circle class="st2" cx="952.9" cy="717.6" r="11.8"/>
		<circle class="st2" cx="1070.6" cy="717.6" r="11.8"/>
		<circle class="st2" cx="1188.2" cy="717.6" r="11.8"/>
		<circle class="st2" cx="11.8" cy="835.3" r="11.8"/>
		<circle class="st2" cx="129.4" cy="835.3" r="11.8"/>
		<circle class="st2" cx="247.1" cy="835.3" r="11.8"/>
		<circle class="st2" cx="364.7" cy="835.3" r="11.8"/>
		<circle class="st2" cx="482.4" cy="835.3" r="11.8"/>
		<circle class="st2" cx="600" cy="835.3" r="11.8"/>
		<circle class="st2" cx="717.6" cy="835.3" r="11.8"/>
		<circle class="st2" cx="835.3" cy="835.3" r="11.8"/>
		<circle class="st2" cx="952.9" cy="835.3" r="11.8"/>
		<circle class="st2" cx="1070.6" cy="835.3" r="11.8"/>
		<circle class="st2" cx="1188.2" cy="835.3" r="11.8"/>
		<circle class="st2" cx="11.8" cy="952.9" r="11.8"/>
		<circle class="st2" cx="129.4" cy="952.9" r="11.8"/>
		<circle class="st2" cx="247.1" cy="952.9" r="11.8"/>
		<circle class="st2" cx="364.7" cy="952.9" r="11.8"/>
		<circle class="st2" cx="482.4" cy="952.9" r="11.8"/>
		<circle class="st2" cx="600" cy="952.9" r="11.8"/>
		<circle class="st2" cx="717.6" cy="952.9" r="11.8"/>
		<circle class="st2" cx="835.3" cy="952.9" r="11.8"/>
		<circle class="st2" cx="952.9" cy="952.9" r="11.8"/>
		<circle class="st2" cx="1070.6" cy="952.9" r="11.8"/>
		<circle class="st2" cx="1188.2" cy="952.9" r="11.8"/>
		<circle class="st2" cx="11.8" cy="1070.6" r="11.8"/>
		<circle class="st2" cx="129.4" cy="1070.6" r="11.8"/>
		<circle class="st2" cx="247.1" cy="1070.6" r="11.8"/>
		<circle class="st2" cx="364.7" cy="1070.6" r="11.8"/>
		<circle class="st2" cx="482.4" cy="1070.6" r="11.8"/>
		<circle class="st2" cx="600" cy="1070.6" r="11.8"/>
		<circle class="st2" cx="717.6" cy="1070.6" r="11.8"/>
		<circle class="st2" cx="835.3" cy="1070.6" r="11.8"/>
		<circle class="st2" cx="952.9" cy="1070.6" r="11.8"/>
		<circle class="st2" cx="1070.6" cy="1070.6" r="11.8"/>
		<circle class="st2" cx="1188.2" cy="1070.6" r="11.8"/>
		<circle class="st2" cx="11.8" cy="1188.2" r="11.8"/>
		<circle class="st2" cx="129.4" cy="1188.2" r="11.8"/>
		<circle class="st2" cx="247.1" cy="1188.2" r="11.8"/>
		<circle class="st2" cx="364.7" cy="1188.2" r="11.8"/>
		<circle class="st2" cx="482.4" cy="1188.2" r="11.8"/>
		<circle class="st2" cx="600" cy="1188.2" r="11.8"/>
		<circle class="st2" cx="717.6" cy="1188.2" r="11.8"/>
		<circle class="st2" cx="835.3" cy="1188.2" r="11.8"/>
		<circle class="st2" cx="952.9" cy="1188.2" r="11.8"/>
		<circle class="st2" cx="1070.6" cy="1188.2" r="11.8"/>
		<circle class="st2" cx="1188.2" cy="1188.2" r="11.8"/>
	</g>
</g>
<g id="Ñëîé_8" class="st0">
	<g class="st3">
		<path class="st4" d="M913.6,468H346.4c-19.8,0-35.9,16.1-35.9,35.9v247.7c0,19.8,16.1,35.9,35.9,35.9h567.2
			c19.8,0,35.9-16.1,35.9-35.9V503.9C949.5,484.1,933.4,468,913.6,468z"/>
		<path class="st5" d="M910.6,466.9h-565c-19.8,0-35.8,16-35.8,35.8v246.7c0,19.8,16,35.8,35.8,35.8h565c19.8,0,35.8-16,35.8-35.8
			V502.7C946.4,482.9,930.4,466.9,910.6,466.9z"/>
		<path class="st6" d="M907.7,465.7H344.8c-19.7,0-35.6,16-35.6,35.6v245.8c0,19.7,16,35.6,35.6,35.6h562.8
			c19.7,0,35.6-16,35.6-35.6V501.4C943.3,481.7,927.4,465.7,907.7,465.7z"/>
		<path class="st7" d="M904.7,464.6H344c-19.6,0-35.5,15.9-35.5,35.5V745c0,19.6,15.9,35.5,35.5,35.5h560.7
			c19.6,0,35.5-15.9,35.5-35.5V500.1C940.2,480.5,924.3,464.6,904.7,464.6z"/>
		<path class="st8" d="M901.8,463.5H343.2c-19.5,0-35.4,15.8-35.4,35.4v243.9c0,19.5,15.8,35.4,35.4,35.4h558.5
			c19.5,0,35.4-15.8,35.4-35.4V498.9C937.1,479.3,921.3,463.5,901.8,463.5z"/>
		<path class="st9" d="M898.8,462.4H342.5c-19.5,0-35.2,15.8-35.2,35.2v242.9c0,19.5,15.8,35.2,35.2,35.2h556.3
			c19.5,0,35.2-15.8,35.2-35.2V497.6C934,478.1,918.3,462.4,898.8,462.4z"/>
		<path class="st10" d="M895.8,461.2H341.7c-19.4,0-35.1,15.7-35.1,35.1v242c0,19.4,15.7,35.1,35.1,35.1h554.2
			c19.4,0,35.1-15.7,35.1-35.1v-242C930.9,477,915.2,461.2,895.8,461.2z"/>
		<path class="st11" d="M892.9,460.1h-552c-19.3,0-35,15.7-35,35v241c0,19.3,15.7,35,35,35h552c19.3,0,35-15.7,35-35v-241
			C927.8,475.8,912.2,460.1,892.9,460.1z"/>
		<path class="st12" d="M889.9,459H340.1c-19.2,0-34.8,15.6-34.8,34.8v240.1c0,19.2,15.6,34.8,34.8,34.8h549.9
			c19.2,0,34.8-15.6,34.8-34.8V493.8C924.7,474.6,909.2,459,889.9,459z"/>
		<path class="st13" d="M887,457.9H339.3c-19.2,0-34.7,15.5-34.7,34.7v239.2c0,19.2,15.5,34.7,34.7,34.7H887
			c19.2,0,34.7-15.5,34.7-34.7V492.6C921.7,473.4,906.1,457.9,887,457.9z"/>
		<path class="st14" d="M884,456.7H338.5c-19.1,0-34.5,15.5-34.5,34.5v238.2c0,19.1,15.5,34.5,34.5,34.5H884
			c19.1,0,34.5-15.5,34.5-34.5V491.3C918.6,472.2,903.1,456.7,884,456.7z"/>
		<path class="st15" d="M881.1,455.6H337.7c-19,0-34.4,15.4-34.4,34.4v237.3c0,19,15.4,34.4,34.4,34.4h543.4
			c19,0,34.4-15.4,34.4-34.4V490C915.5,471,900.1,455.6,881.1,455.6z"/>
		<path class="st16" d="M878.1,454.5H336.9c-18.9,0-34.3,15.3-34.3,34.3v236.3c0,18.9,15.3,34.3,34.3,34.3h541.2
			c18.9,0,34.3-15.3,34.3-34.3V488.8C912.4,469.8,897,454.5,878.1,454.5z"/>
		<path class="st17" d="M875.1,453.4h-539c-18.9,0-34.1,15.3-34.1,34.1v235.4c0,18.9,15.3,34.1,34.1,34.1h539
			c18.9,0,34.1-15.3,34.1-34.1V487.5C909.3,468.7,894,453.4,875.1,453.4z"/>
		<path class="st18" d="M872.2,452.2H335.3c-18.8,0-34,15.2-34,34v234.4c0,18.8,15.2,34,34,34h536.9c18.8,0,34-15.2,34-34V486.3
			C906.2,467.5,891,452.2,872.2,452.2z"/>
		<path class="st19" d="M869.2,451.1H334.5c-18.7,0-33.9,15.2-33.9,33.9v233.5c0,18.7,15.2,33.9,33.9,33.9h534.7
			c18.7,0,33.9-15.2,33.9-33.9V485C903.1,466.3,887.9,451.1,869.2,451.1z"/>
		<path class="st20" d="M866.3,450H333.7c-18.6,0-33.7,15.1-33.7,33.7v232.5c0,18.6,15.1,33.7,33.7,33.7h532.5
			c18.6,0,33.7-15.1,33.7-33.7V483.7C900,465.1,884.9,450,866.3,450z"/>
	</g>
	<g class="st3">
		<rect x="300" y="450" class="st21" width="600" height="300"/>
		<rect x="545" y="348" transform="matrix(-1.836970e-16 1 -1 -1.836970e-16 1155 -45)" class="st22" width="110" height="414"/>
		<g>
			<path class="st22" d="M366.5,679.2l3.9,16.8c0.9,4.3-6.1,5.9-6.9,0.9l-0.7-3.5c-0.3-1.6-1.3-3.1-3.4-3h-7.5
				c-1.5-0.1-3.2,0.4-3.9,2.8l-1.3,4.5c-1,3.9-7.5,2.8-6.6-2l10.2-43.2c1.9-6.6,8.7-5.9,9.8-0.1L366.5,679.2z M351.4,679.6
				c-0.3,1.3,0.1,2.7,1.9,2.7h4.3c1.8,0,2.2-1.4,1.9-2.7l-2.5-11.7c-0.4-1.9-2.6-2.5-3.3,0C352.9,671.9,352.2,675.8,351.4,679.6z"/>
			<path class="st22" d="M390.7,647.5c6,0.6,9.4,5.1,10.5,10.2c0.6,2.7,0.5,4.9-0.3,7.6c-0.6,2.1-1.4,3.8-1.3,5.5
				c0.1,1.6,1.2,2.2,2.5,4.2c2,2.9,2.8,7.2,2.6,10.5c-0.4,6.4-4.3,12.8-10.3,14c-1.8,0.5-8,0.3-11.3,0.3c-4.2-0.1-4.5-2.6-4.5-5.2
				v-22.6c0-6.7,0-13.6,0-20.3c0.1-3.4,1.9-4.2,4.6-4.1C386.4,647.5,386.9,647.4,390.7,647.5z M385.6,687.8
				c-0.1,1.6,0.4,3.7,3.2,3.7h2.5c8,0,7.2-14.6,0.4-14.6h-2.9c-2.5,0-3,1.5-3.1,3.4C385.6,682.3,385.5,685.4,385.6,687.8z
				 M385.7,666.3c0,1.1,0.4,2.6,2.2,2.6h2c5.7-0.1,6.4-12.9-0.1-12.9h-1.2c-1.9,0-2.7,0.7-2.8,2.8
				C385.8,661.3,385.7,663.7,385.7,666.3z"/>
			<path class="st22" d="M432.7,659.3c-1.3-5.5-11.5-5.5-10.4,3.5c0.9,5.3,13.9,9.6,16.7,17c1.8,5.1,0.4,11.4-3.1,15.2
				c-7.4,8.1-21.7,6.1-24.3-5.5c-1.6-5.8,6.1-7.9,7.2-3.1c1.4,6.3,7.8,7.7,11.4,3.1c1.5-1.9,1.8-4.6,1.2-6.9
				c-1.7-6.4-16.2-7.7-16.9-19.7c-0.9-17,21-20.2,25.2-6.5C441.4,662,433.8,664,432.7,659.3z"/>
			<path class="st22" d="M456.1,671.7l-0.1-13c-0.1-2.7-1.6-3.1-3.6-3.1h-3.4c-5,0.1-5.2-8,0-8h21.3c5.2,0,5.1,8,0.1,7.9l-4.3,0.1
				c-2.2-0.1-2.9,0.6-2.9,3.1v12.6v24.8c0.1,4.9-7.2,5.1-7.2-0.1V671.7z"/>
			<path class="st22" d="M481.9,673.8v-21.6c0-2.8,2.6-4.9,4.6-4.6h10.9c6.8,0,10.8,8,11.1,16c0.1,5.7-1,8.5-4,13.1
				c-1.1,1.8-2.4,4.2-0.5,7.4l4.6,10.6c2.2,4.4-4.4,7.6-6.6,3l-6.8-14.3c-1.5-3.2-6-2.5-6,1.4v11.4c0.1,4.9-7.2,5-7.2-0.1
				L481.9,673.8z M492.8,672.4h3.1c3.7,0,5.7-4.6,5.5-9c-0.1-4.3-2.2-8.6-6.4-8.6h-2.3c-1.7,0-3.5,1.3-3.6,3.6V669
				C489.1,670.8,490.7,672.6,492.8,672.4z"/>
			<path class="st22" d="M541.4,679.2l3.9,16.8c0.9,4.3-6.1,5.9-6.9,0.9l-0.7-3.5c-0.3-1.6-1.3-3.1-3.4-3h-7.5
				c-1.5-0.1-3.2,0.4-3.9,2.8l-1.3,4.5c-1,3.9-7.5,2.8-6.6-2l10.2-43.2c1.9-6.6,8.7-5.9,9.8-0.1L541.4,679.2z M526.4,679.6
				c-0.3,1.3,0.1,2.7,1.9,2.7h4.3c1.8,0,2.2-1.4,1.9-2.7l-2.5-11.7c-0.4-1.9-2.6-2.5-3.3,0C527.9,671.9,527.1,675.8,526.4,679.6z"/>
			<path class="st22" d="M564,692.3c2.5-0.1,5-1.8,5-5l0.1-3.7c0.1-5.1,7.6-4.3,7.5,0v3.8c0,2.5-0.5,4.9-1.9,7
				c-2.2,3.4-6.4,5.3-10.8,5.5c-4.2,0.2-8.3-1.2-10.5-4.4c-1.8-2.4-2.2-6.1-2.1-9c0-4.3,0-8.7,0-13c0-4.1,0-8.1,0-12.2
				c-0.1-3,0.3-6.6,2.1-9.1c2.1-3.1,6-4.5,9.9-4.4c4.5,0.1,9,1.9,11.3,5.5c1.3,2.1,1.9,4.5,1.9,6.9v3.8c0.1,4.3-7.4,5.2-7.5,0v-3.7
				c-0.1-3.2-2.6-4.9-5.1-5c-2.6-0.1-5.2,1.3-5.2,4.3c-0.1,4.6-0.1,9.1-0.1,13.7c0,4.3,0,8.7,0.1,12.8
				C558.9,689.7,559.5,692.6,564,692.3z"/>
			<path class="st22" d="M593.5,671.7l-0.1-13c-0.1-2.7-1.6-3.1-3.6-3.1h-3.4c-5,0.1-5.2-8,0-8h21.3c5.2,0,5.1,8,0.1,7.9l-4.3,0.1
				c-2.2-0.1-2.9,0.6-2.9,3.1v12.6v24.8c0.1,4.9-7.2,5.1-7.2-0.1V671.7z"/>
			<path class="st22" d="M638.3,673.9v-21.6c0-2.8,2.6-4.9,4.6-4.7l10.9,0.1c13.7,0.1,16.1,32.2-1,32.3l-3.7,0.1
				c-1.3,0-3.4,1.8-3.4,4v12c0.1,5-7.2,5.1-7.2-0.1V673.9z M649.2,672.5h3.1c7.4,0,7.7-17.6-0.9-17.6h-2.3c-1.7-0.1-3.5,1.2-3.6,3.6
				V669C645.4,670.8,647.1,672.6,649.2,672.5z"/>
			<path class="st22" d="M694.4,679.2l3.9,16.8c0.9,4.3-6.1,5.9-6.9,0.9l-0.7-3.5c-0.3-1.6-1.3-3.1-3.4-3h-7.5
				c-1.5-0.1-3.2,0.4-3.9,2.8l-1.3,4.5c-1,3.9-7.5,2.8-6.6-2l10.2-43.2c1.9-6.6,8.7-5.9,9.8-0.1L694.4,679.2z M679.4,679.6
				c-0.3,1.3,0.1,2.7,1.9,2.7h4.3c1.8,0,2.2-1.4,1.9-2.7l-2.5-11.7c-0.4-1.9-2.6-2.5-3.3,0C680.9,671.9,680.2,675.8,679.4,679.6z"/>
			<path class="st22" d="M709.1,671.7l-0.1-13c-0.1-2.7-1.6-3.1-3.6-3.1H702c-5,0.1-5.2-8,0-8h21.3c5.2,0,5.1,8,0.1,7.9l-4.3,0.1
				c-2.2-0.1-2.9,0.6-2.9,3.1v12.6v24.8c0.1,4.9-7.2,5.1-7.2-0.1V671.7z"/>
			<path class="st22" d="M744.1,671.7l-0.1-13c-0.1-2.7-1.6-3.1-3.6-3.1h-3.4c-5,0.1-5.2-8,0-8h21.3c5.2,0,5.1,8,0.1,7.9l-4.3,0.1
				c-2.2-0.1-2.9,0.6-2.9,3.1v12.6v24.8c0.1,4.9-7.2,5.1-7.2-0.1V671.7z"/>
			<path class="st22" d="M788.4,647.5c4.3-0.1,4.3,7.1,0,7.2c-2.7,0-5.2,0-7.8,0c-1.8,0-3.6,1-3.6,3.3c0,2.9,0,5.6,0,8.4
				c-0.1,1.9,0.8,3.4,2.7,3.4h6c4.4-0.1,4.3,7.1,0.1,7.2c-2.1,0-4.1,0-6.2,0c-1.3,0-2.6,0.9-2.5,3.1c0.1,2.8,0,5.5,0,8.4
				c0,1.9,0.4,4,3.4,4h8.1c4.3-0.1,4.3,7.1-0.1,7.2c-4.7,0-9.4,0-14.1,0c-4.2,0-4.5-2.6-4.5-5.2V672c0-6.7,0-13.6,0.1-20.3
				c0-3.4,1.9-4.2,4.5-4.1H788.4z"/>
			<path class="st22" d="M798.8,673.8v-21.6c0-2.8,2.6-4.9,4.6-4.6h10.9c6.8,0,10.8,8,11.1,16c0.1,5.7-1,8.5-4,13.1
				c-1.1,1.8-2.4,4.2-0.5,7.4l4.6,10.6c2.2,4.4-4.4,7.6-6.6,3l-6.8-14.3c-1.5-3.2-6-2.5-6,1.4v11.4c0.1,4.9-7.2,5-7.2-0.1
				L798.8,673.8z M809.8,672.4h3.1c3.7,0,5.7-4.6,5.5-9c-0.1-4.3-2.2-8.6-6.4-8.6h-2.3c-1.7,0-3.5,1.3-3.6,3.6V669
				C806.1,670.8,807.7,672.6,809.8,672.4z"/>
			<path class="st22" d="M853.4,697.3l-10.2-22.4c-0.7-1.7-1.9-0.7-1.9,0.1c0,7.6,0,13.6,0,21.2c0.1,5-7.2,5.1-7.2-0.1v-24.4v-20.2
				c0-4.3,5.5-5.4,7.1-1.3c2.8,7.1,6.9,17.2,9.6,24.3c0.7,1.3,1.9,0.4,1.9-0.1c0-6.7,0-16,0-22.8c0-5.1,7.3-5,7.2-0.1v19.9v24.8
				C860.1,700.9,855.1,701.1,853.4,697.3z"/>
		</g>
		<g>
			<path class="st21" d="M424.6,571.5c0,2.3,0.3,4.3,1.1,5.8c0.9,1.6,2.7,2.6,5.9,2.4c3.4-0.2,6.7-1.3,6.8-6.6l0.1-4.4
				c0-1.8-1.9-2.7-2.7-2.7h-1.4c-5.8-0.1-5.8-9.8,0-9.7c2.7,0,5.9,0,8.5,0c4.5,0.1,5.4,2.4,5.4,5.6c0,3.5,0,8.1,0,11.4
				c0,3.2-0.7,6.5-2.5,9.2c-2.8,4.6-8.5,7-14.3,7.3c-5.5,0.2-11-1.7-13.9-6c-2.3-3.2-2.9-8.1-2.8-12v-17.6v-16c0-3.9,0.5-8.8,2.8-12
				c2.8-4.1,7.9-6,13.3-6c5.9,0.1,12,2.6,14.9,7.3c1.8,2.8,2.5,6.1,2.5,9.2v5.1c0.2,5.8-9.7,6.9-9.8,0.1l-0.1-5
				c-0.1-4.3-3.4-6.5-6.8-6.6c-3.5-0.2-7,1.7-6.9,5.7v18.4L424.6,571.5z"/>
			<path class="st21" d="M483.7,520.2c5.8-0.1,5.7,9.4,0,9.6c-3.6,0-6.9,0-10.4,0c-2.4,0-4.8,1.3-4.8,4.4c0,3.9,0,7.4,0,11.2
				c-0.1,2.6,1.1,4.6,3.6,4.5h7.9c5.9-0.1,5.8,9.4,0.1,9.5c-2.8,0-5.5,0-8.2,0c-1.8,0-3.5,1.2-3.4,4.2c0.2,3.7,0,7.3,0,11.1
				c0,2.5,0.6,5.4,4.5,5.4h10.7c5.8-0.1,5.7,9.4-0.1,9.6c-6.3,0-12.5,0-18.8,0c-5.6,0-6-3.5-6-7v-30.1c0-8.9,0-18.1,0.1-27
				c0-4.5,2.6-5.6,6-5.5H483.7z"/>
			<path class="st21" d="M499.1,572.8c-0.1-5.9-0.1-11.7-0.1-17.7c0-6.1,0-12,0.1-18.1c0.3-22.7,32.6-22.3,32.7,0.4
				c0,5.9,0,11.7,0,17.6c0,5.9,0,11.6,0,17.5C531.7,595.3,499.4,595.7,499.1,572.8z M522,554.8v-18.2c0-8.9-13.6-9.3-13.3,1
				c0,5.8,0,11.5,0,17.4c0,5.9,0,11.6,0,17.5c-0.3,10.3,13.3,9.9,13.3,1V554.8z"/>
			<path class="st21" d="M542.8,552.2v-26.8c0-5.9,7.1-7.1,9.4-1.8l10,24.3c2.1,4.8,3.7,5.2,5.8-0.2l9.7-23.8
				c2.5-5.9,8.9-4.1,9.5,0.5c0,0.3,0,0.6,0,1v26.8v32.5c0,6.9-9.6,6.8-9.5,0.2v-27.7c0.2-3.4-2.3-2.7-2.8-1.2
				c-1.9,4.6-3.3,7.9-5.2,12.4c-1.9,4.7-7.4,4.9-9.4,0.2l-5.1-12.3c-1.1-2.6-3-0.7-2.9,0.4c0,10.2,0,18,0,28.2
				c0,6.6-9.6,6.7-9.6-0.2V552.2z"/>
			<path class="st21" d="M622.6,520.2c5.8-0.1,5.7,9.4,0,9.6c-3.6,0-6.9,0-10.4,0c-2.4,0-4.8,1.3-4.8,4.4c0,3.9,0,7.4,0,11.2
				c-0.1,2.6,1.1,4.6,3.6,4.5h7.9c5.9-0.1,5.8,9.4,0.1,9.5c-2.8,0-5.5,0-8.2,0c-1.8,0-3.5,1.2-3.4,4.2c0.2,3.7,0,7.3,0,11.1
				c0,2.5,0.6,5.4,4.5,5.4h10.7c5.8-0.1,5.7,9.4-0.1,9.6c-6.3,0-12.5,0-18.8,0c-5.6,0-6-3.5-6-7v-30.1c0-8.9,0-18.1,0.1-27
				c0-4.5,2.6-5.6,6-5.5H622.6z"/>
			<path class="st21" d="M649.6,552.4l-0.1-17.3c-0.1-3.6-2.1-4.2-4.8-4.1h-4.5c-6.7,0.1-6.9-10.6,0-10.6h28.3
				c6.9,0,6.8,10.6,0.1,10.5L663,531c-2.9-0.1-3.9,0.8-3.9,4.1v16.8v33c0.1,6.6-9.5,6.8-9.5-0.1V552.4z"/>
			<path class="st21" d="M683.8,555.1v-28.7c0-3.7,3.5-6.5,6.1-6.2h14.5c9,0,14.4,10.6,14.7,21.2c0.2,7.5-1.4,11.3-5.4,17.4
				c-1.5,2.4-3.2,5.6-0.7,9.8l6.2,14.1c2.9,5.9-5.9,10.1-8.7,4l-9-19c-2-4.3-7.9-3.4-7.9,1.9v15.1c0.1,6.6-9.5,6.7-9.5-0.2
				L683.8,555.1z M698.4,553.3h4.1c5,0,7.5-6.1,7.3-12c-0.2-5.8-3-11.4-8.5-11.4h-3.1c-2.3,0-4.7,1.7-4.8,4.8v14.1
				C693.4,551.2,695.6,553.5,698.4,553.3z"/>
			<path class="st21" d="M730.6,552.1v-26.8c0-6.9,9.6-6.7,9.6-0.1v26.5v33.1c0,6.7-9.6,6.8-9.6-0.1V552.1z"/>
			<path class="st21" d="M768.5,579.7c3.3-0.2,6.7-2.4,6.7-6.7l0.1-4.9c0.1-6.8,10.1-5.8,9.9,0v5.1c0,3.3-0.7,6.5-2.5,9.3
				c-2.9,4.6-8.5,7-14.3,7.2c-5.6,0.3-11-1.6-13.9-5.9c-2.4-3.2-2.9-8.1-2.8-12c0-5.8,0-11.5,0-17.3c0-5.5,0-10.8,0-16.3
				c-0.1-4,0.4-8.8,2.8-12.1c2.8-4.1,7.9-6,13.2-5.9c6,0.1,12,2.6,15,7.3c1.8,2.8,2.5,6,2.5,9.2v5.1c0.2,5.8-9.8,6.9-9.9,0v-4.9
				c-0.1-4.3-3.5-6.5-6.8-6.7c-3.5-0.2-7,1.8-7,5.8c-0.1,6.1-0.1,12.1-0.1,18.2c0,5.8,0,11.5,0.1,17.1
				C761.7,576.2,762.5,580.1,768.5,579.7z"/>
		</g>
	</g>
</g>
</svg>
