<svg xmlns="http://www.w3.org/2000/svg" viewBox="0 0 444.4 509.97"><defs><style>.cls-1{fill:#dc143c;}</style></defs><title>DOTTED</title><g id="Layer_1" data-name="Layer 1"><circle class="cls-1" cx="17.14" cy="15.96" r="15.96"/><circle class="cls-1" cx="69.36" cy="15.96" r="15.96"/><circle class="cls-1" cx="122.18" cy="15.96" r="15.96"/><circle class="cls-1" cx="175.92" cy="15.96" r="15.96"/><circle class="cls-1" cx="228.8" cy="15.96" r="15.96"/><circle class="cls-1" cx="280.36" cy="15.96" r="15.96"/><circle class="cls-1" cx="17.14" cy="69.4" r="15.96"/><circle class="cls-1" cx="69.36" cy="69.4" r="15.96"/><circle class="cls-1" cx="122.18" cy="69.4" r="15.96"/><circle class="cls-1" cx="175.92" cy="69.4" r="15.96"/><circle class="cls-1" cx="228.8" cy="69.4" r="15.96"/><circle class="cls-1" cx="280.36" cy="69.4" r="15.96"/><circle class="cls-1" cx="17.14" cy="121.62" r="15.96"/><circle class="cls-1" cx="69.36" cy="121.62" r="15.96"/><circle class="cls-1" cx="122.18" cy="121.62" r="15.96"/><circle class="cls-1" cx="175.92" cy="121.62" r="15.96"/><circle class="cls-1" cx="228.8" cy="121.62" r="15.96"/><circle class="cls-1" cx="280.36" cy="121.62" r="15.96"/><circle class="cls-1" cx="16.96" cy="173.85" r="15.96"/><circle class="cls-1" cx="69.18" cy="173.85" r="15.96"/><circle class="cls-1" cx="122" cy="173.85" r="15.96"/><circle class="cls-1" cx="175.73" cy="173.85" r="15.96"/><circle class="cls-1" cx="228.62" cy="173.85" r="15.96"/><circle class="cls-1" cx="280.18" cy="173.85" r="15.96"/><circle class="cls-1" cx="16.96" cy="228.04" r="15.96"/><circle class="cls-1" cx="69.18" cy="228.04" r="15.96"/><circle class="cls-1" cx="122" cy="228.04" r="15.96"/><circle class="cls-1" cx="175.73" cy="228.04" r="15.96"/><circle class="cls-1" cx="228.62" cy="228.04" r="15.96"/><circle class="cls-1" cx="280.18" cy="228.04" r="15.96"/><circle class="cls-1" cx="16.25" cy="280.24" r="15.96"/><circle class="cls-1" cx="68.47" cy="280.24" r="15.96"/><circle class="cls-1" cx="121.29" cy="280.24" r="15.96"/><circle class="cls-1" cx="175.03" cy="280.24" r="15.96"/><circle class="cls-1" cx="227.91" cy="280.24" r="15.96"/><circle class="cls-1" cx="279.47" cy="280.24" r="15.96"/><circle class="cls-1" cx="16.25" cy="334.44" r="15.96"/><circle class="cls-1" cx="68.47" cy="334.44" r="15.96"/><circle class="cls-1" cx="121.29" cy="334.44" r="15.96"/><circle class="cls-1" cx="175.03" cy="334.44" r="15.96"/><circle class="cls-1" cx="227.91" cy="334.44" r="15.96"/><circle class="cls-1" cx="279.47" cy="334.44" r="15.96"/><circle class="cls-1" cx="16.25" cy="386.4" r="15.96"/><circle class="cls-1" cx="68.47" cy="386.4" r="15.96"/><circle class="cls-1" cx="121.29" cy="386.4" r="15.96"/><circle class="cls-1" cx="175.03" cy="386.4" r="15.96"/><circle class="cls-1" cx="227.91" cy="386.4" r="15.96"/><circle class="cls-1" cx="279.47" cy="386.4" r="15.96"/><circle class="cls-1" cx="16.25" cy="438.85" r="15.96"/><circle class="cls-1" cx="68.47" cy="438.85" r="15.96"/><circle class="cls-1" cx="121.29" cy="438.85" r="15.96"/><circle class="cls-1" cx="175.03" cy="438.85" r="15.96"/><circle class="cls-1" cx="227.91" cy="438.85" r="15.96"/><circle class="cls-1" cx="279.47" cy="438.85" r="15.96"/><circle class="cls-1" cx="15.96" cy="494.01" r="15.96"/><circle class="cls-1" cx="68.18" cy="494.01" r="15.96"/><circle class="cls-1" cx="121" cy="494.01" r="15.96"/><circle class="cls-1" cx="174.73" cy="494.01" r="15.96"/><circle class="cls-1" cx="227.62" cy="494.01" r="15.96"/><circle class="cls-1" cx="279.18" cy="494.01" r="15.96"/></g><g id="Layer_2" data-name="Layer 2"><circle class="cls-1" cx="331.33" cy="279.6" r="15.96"/><circle class="cls-1" cx="331.33" cy="227.38" r="15.96"/><circle class="cls-1" cx="331.33" cy="174.56" r="15.96"/><circle class="cls-1" cx="331.33" cy="120.83" r="15.96"/><circle class="cls-1" cx="331.33" cy="67.94" r="15.96"/><circle class="cls-1" cx="331.33" cy="16.38" r="15.96"/><circle class="cls-1" cx="378.67" cy="279.6" r="15.96"/><circle class="cls-1" cx="378.67" cy="227.38" r="15.96"/><circle class="cls-1" cx="378.67" cy="174.56" r="15.96"/><circle class="cls-1" cx="378.67" cy="120.83" r="15.96"/><circle class="cls-1" cx="378.67" cy="67.94" r="15.96"/><circle class="cls-1" cx="378.67" cy="16.38" r="15.96"/><circle class="cls-1" cx="428.45" cy="279.18" r="15.96"/><circle class="cls-1" cx="428.45" cy="226.96" r="15.96"/><circle class="cls-1" cx="428.45" cy="174.14" r="15.96"/><circle class="cls-1" cx="428.45" cy="120.4" r="15.96"/><circle class="cls-1" cx="428.45" cy="67.52" r="15.96"/><circle class="cls-1" cx="428.45" cy="15.96" r="15.96"/><circle class="cls-1" cx="331.33" cy="493.62" r="15.96"/><circle class="cls-1" cx="331.33" cy="438.88" r="15.96"/><circle class="cls-1" cx="331.33" cy="386" r="15.96"/><circle class="cls-1" cx="331.33" cy="334.44" r="15.96"/><circle class="cls-1" cx="378.67" cy="493.62" r="15.96"/><circle class="cls-1" cx="378.67" cy="438.88" r="15.96"/><circle class="cls-1" cx="378.67" cy="386" r="15.96"/><circle class="cls-1" cx="378.67" cy="334.44" r="15.96"/><circle class="cls-1" cx="428.45" cy="493.62" r="15.96"/><circle class="cls-1" cx="428.45" cy="438.88" r="15.96"/><circle class="cls-1" cx="428.45" cy="386" r="15.96"/><circle class="cls-1" cx="428.45" cy="334.44" r="15.96"/></g></svg>